<?xml version="1.0" encoding="UTF-8" standalone="yes"?>
<!DOCTYPE svg PUBLIC "-//W3C//DTD SVG 1.1//EN" "http://www.w3.org/Graphics/SVG/1.1/DTD/svg11.dtd">

<svg width="500" height="310" viewBox="0 0 500 310" xmlns="http://www.w3.org/2000/svg" xmlns:xlink="http://www.w3.org/1999/xlink" version="1.1" baseProfile="full">
    <g transform="scale(1,-1) translate(0,-310)">
        <path d="M 1.000000 1.000000 L 501.000000 1.000000 L 501.000000 311.000000 L 1.000000 311.000000 Z" transform="scale(1.000000,1.000000) translate(-1.000000,-1.000000)" fill="#fffefe" opacity="1.000000"></path>
        <path d="M 296.512500 185.896500 L 310.437000 201.208900 L 317.237400 208.400300 L 323.952700 215.232400 L 330.599700 221.668000 L 337.195700 227.669900 L 343.757600 233.200900 L 350.302500 238.223900 L 356.847300 242.701800 L 363.409200 246.597300 L 370.005200 249.873400 L 373.321200 251.267500 L 376.652200 252.492800 L 380.000300 253.544600 L 383.367500 254.418400 L 386.755900 255.109400 L 390.167900 255.613000 L 393.605300 255.924500 L 397.070500 256.039400 L 400.565400 255.953000 L 404.092400 255.660600 L 407.653300 255.157600 L 411.250500 254.439300 L 414.886000 253.501100 L 418.562000 252.338400 L 422.280600 250.946500 L 426.043900 249.320700 L 429.854000 247.456500 L 433.713100 245.349100 L 437.623400 242.993900 L 441.586900 240.386400 L 445.605700 237.521700 L 449.682000 234.395400 L 453.818000 231.002700 L 458.015700 227.339000 L 462.277300 223.399600 L 466.605000 219.179900 L 458.015700 229.241000 L 449.682000 238.195700 L 441.586900 246.077600 L 437.623400 249.626700 L 433.713100 252.920100 L 429.854000 255.962000 L 426.043900 258.756600 L 422.280600 261.308100 L 418.562000 263.620600 L 414.886000 265.698300 L 411.250500 267.545500 L 407.653300 269.166200 L 404.092400 270.564700 L 400.565400 271.745200 L 397.070500 272.711800 L 393.605300 273.468800 L 390.167900 274.020200 L 386.755900 274.370300 L 383.367500 274.523200 L 380.000300 274.483200 L 376.652200 274.254400 L 373.321200 273.841000 L 370.005200 273.247200 L 366.701900 272.477100 L 363.409200 271.535000 L 360.125100 270.425000 L 356.847300 269.151300 L 350.302500 266.129600 L 343.757600 262.503200 L 337.195700 258.305600 L 330.599700 253.570300 L 323.952700 248.330700 L 317.237400 242.620300 L 310.437000 236.472400 L 303.534400 229.920600 L 296.512500 222.998300 L 282.042900 208.176000 L 266.891800 192.272900 L 252.700600 177.417600 L 288.970900 177.417600 Z M 87.999600 1.516700 L 91.347700 1.745500 L 94.678700 2.158900 L 97.994700 2.752700 L 101.298000 3.522800 L 104.590700 4.464900 L 107.874800 5.574900 L 111.152600 6.848600 L 117.697500 9.870300 L 124.242300 13.496700 L 130.804200 17.694300 L 137.400200 22.429600 L 144.047200 27.669200 L 150.762500 33.379600 L 157.562900 39.527500 L 164.465500 46.079300 L 171.487400 53.001600 L 185.957000 67.823900 L 201.108100 83.727000 L 215.299300 98.582300 L 179.029000 98.582300 L 171.487400 90.103400 L 157.562900 74.791000 L 150.762500 67.599600 L 144.047200 60.767500 L 137.400200 54.331900 L 130.804200 48.330000 L 124.242300 42.799000 L 117.697500 37.775900 L 111.152600 33.298100 L 104.590700 29.402500 L 97.994700 26.126500 L 94.678700 24.732400 L 91.347700 23.507100 L 87.999600 22.455300 L 84.632400 21.581500 L 81.244000 20.890500 L 77.832000 20.386900 L 74.394600 20.075400 L 70.929400 19.960500 L 67.434500 20.046900 L 63.907500 20.339300 L 60.346600 20.842300 L 56.749400 21.560600 L 53.113900 22.498800 L 49.437900 23.661500 L 45.719300 25.053400 L 41.956000 26.679200 L 38.145900 28.543400 L 34.286800 30.650800 L 30.376500 33.005900 L 26.413000 35.613500 L 22.394200 38.478200 L 18.317900 41.604500 L 14.181900 44.997200 L 9.984200 48.660900 L 5.722600 52.600300 L 1.395000 56.819900 L 9.984200 46.758900 L 18.317900 37.804200 L 26.413000 29.922300 L 30.376500 26.373200 L 34.286800 23.079800 L 38.145900 20.037900 L 41.956000 17.243300 L 45.719300 14.691800 L 49.437900 12.379300 L 53.113900 10.301600 L 56.749400 8.454400 L 60.346600 6.833700 L 63.907500 5.435100 L 67.434500 4.254700 L 70.929400 3.288100 L 74.394600 2.531100 L 77.832000 1.979700 L 81.244000 1.629600 L 84.632400 1.476700 Z" transform="scale(1.000000,1.000000) translate(16.000000,17.000000)" fill="#0c0d38" opacity="1.000000"></path>
        <path d="M 16.314994 1.396540 C 28.150735 1.396540 34.408713 6.702217 34.408713 16.497313 C 34.408713 25.748236 29.987316 28.945247 21.892757 30.509741 L 18.491682 31.121935 C 14.478414 31.938193 13.117984 32.890494 13.117984 35.271246 C 13.117984 37.924085 15.226650 39.216493 19.375962 39.216493 C 24.545596 39.216493 28.490843 38.128149 31.687853 37.039805 L 31.687853 46.222708 C 28.966993 47.515116 25.429875 48.603460 18.151575 48.603460 C 6.587920 48.603460 1.214221 42.957676 1.214221 34.318945 C 1.214221 24.727914 5.635619 21.530904 12.913919 20.170474 L 16.314994 19.490259 C 20.736392 18.605979 21.892757 17.789721 21.892757 15.136883 C 21.892757 12.416023 19.920134 10.851528 14.818521 10.851528 C 9.512844 10.851528 5.363533 11.939872 1.282243 13.436345 L 1.282243 4.117400 C 4.547275 2.348841 9.920973 1.396540 16.314994 1.396540 Z M 60.528969 1.396540 C 73.521075 1.396540 79.506967 7.178367 79.506967 18.537958 L 79.506967 47.787202 L 68.079355 47.787202 L 68.079355 19.014108 C 68.079355 13.096238 65.970689 10.715485 60.937098 10.715485 C 55.903507 10.715485 53.522755 13.096238 53.522755 18.946087 L 53.522755 47.787202 L 40.666691 47.787202 L 40.666691 18.469936 C 40.666691 7.110346 47.332798 1.396540 60.528969 1.396540 Z M 87.873612 2.144776 L 100.661654 2.144776 L 100.661654 21.054753 L 115.014190 21.054753 L 115.014190 2.144776 L 127.870254 2.144776 L 127.870254 47.855224 L 115.014190 47.855224 L 115.014190 30.237655 L 100.661654 30.237655 L 100.661654 47.855224 L 87.873612 47.855224 Z M 156.847412 10.715485 C 150.997564 10.715485 148.072639 14.320625 148.072639 24.183742 L 148.072639 26.496473 C 148.072639 35.135203 150.997564 39.284515 156.643348 39.284515 C 162.629240 39.284515 165.350100 35.407289 165.350100 25.884279 L 165.350100 23.571549 C 165.350100 14.864797 162.425175 10.715485 156.847412 10.715485 Z M 156.575326 1.396540 C 168.275024 1.396540 178.818357 8.130668 178.818357 24.387807 L 178.818357 25.884279 C 178.818357 41.869332 169.091282 48.603460 156.915434 48.603460 C 145.215736 48.603460 134.672404 41.869332 134.672404 25.612193 L 134.672404 24.115721 C 134.672404 8.130668 144.331457 1.396540 156.575326 1.396540 Z M 198.748656 1.396540 C 210.584397 1.396540 216.842375 6.702217 216.842375 16.497313 C 216.842375 25.748236 212.420978 28.945247 204.326419 30.509741 L 200.925344 31.121935 C 196.912076 31.938193 195.551646 32.890494 195.551646 35.271246 C 195.551646 37.924085 197.660312 39.216493 201.809624 39.216493 C 206.979258 39.216493 210.924505 38.128149 214.121515 37.039805 L 214.121515 46.222708 C 211.400655 47.515116 207.863537 48.603460 200.585237 48.603460 C 189.021582 48.603460 183.647883 42.957676 183.647883 34.318945 C 183.647883 24.727914 188.069281 21.530904 195.347581 20.170474 L 198.748656 19.490259 C 203.170054 18.605979 204.326419 17.789721 204.326419 15.136883 C 204.326419 12.416023 202.353796 10.851528 197.252183 10.851528 C 191.946506 10.851528 187.797195 11.939872 183.715905 13.436345 L 183.715905 4.117400 C 186.980937 2.348841 192.354635 1.396540 198.748656 1.396540 Z M 223.712547 2.144776 L 236.568610 2.144776 L 236.568610 47.855224 L 223.712547 47.855224 Z M 245.411405 2.144776 L 256.294845 2.144776 L 256.294845 30.645784 L 256.566931 30.645784 L 272.892091 2.144776 L 285.067939 2.144776 L 285.067939 47.855224 L 274.184499 47.855224 L 274.184499 22.279140 L 273.980435 22.279140 L 259.219769 47.855224 L 245.411405 47.855224 Z M 291.938111 17.177528 L 312.004453 17.177528 L 312.004453 26.292408 L 291.938111 26.292408 Z M 318.534517 2.144776 L 329.417957 2.144776 L 329.417957 30.645784 L 329.690043 30.645784 L 346.015203 2.144776 L 358.191051 2.144776 L 358.191051 47.855224 L 347.307611 47.855224 L 347.307611 22.279140 L 347.103547 22.279140 L 332.342882 47.855224 L 318.534517 47.855224 Z M 388.392597 1.464561 C 394.922661 1.464561 401.384704 2.961034 404.785779 4.389486 L 404.785779 26.836580 L 386.351952 26.836580 L 386.351952 18.469936 L 392.882016 18.469936 L 392.882016 11.327679 C 391.793672 10.919550 389.889070 10.579442 387.984468 10.579442 C 380.025953 10.579442 378.189372 15.545012 378.189372 24.047699 L 378.189372 26.088344 C 378.189372 33.774773 380.774189 38.808364 390.501264 38.808364 C 396.215070 38.808364 399.956252 37.583977 402.473048 36.699698 L 402.473048 46.086665 C 399.956252 47.379073 395.058704 48.603460 388.732705 48.603460 C 376.080706 48.603460 364.993201 43.093719 364.993201 25.748236 L 364.993201 24.251764 C 364.993201 7.450453 373.904018 1.464561 388.392597 1.464561 Z" transform="scale(1.000000,1.000000) translate(47.000000,130.000000)" fill="#970e0e" opacity="1.000000"></path>
        <path d="M 1.000012 1.929280 L 2.623388 1.929280 L 2.623388 10.071527 L 11.729515 10.071527 L 11.729515 1.929280 L 13.352892 1.929280 L 13.352892 18.949367 L 11.729515 18.949367 L 11.729515 11.441251 L 2.623388 11.441251 L 2.623388 18.949367 L 1.000012 18.949367 Z M 16.041609 1.929280 L 17.614255 1.929280 L 19.516649 7.129157 L 26.568190 7.129157 L 28.495950 1.929280 L 30.220787 1.929280 L 23.955569 18.949367 L 22.332193 18.949367 Z M 23.017054 16.742590 L 23.067785 16.742590 L 26.060885 8.549612 L 19.998589 8.549612 Z M 32.909504 1.929280 L 34.532881 1.929280 L 34.532881 9.386665 L 38.084017 9.386665 L 42.522937 1.929280 L 44.425331 1.929280 L 39.732758 9.665683 L 39.732758 9.767144 C 42.066362 10.401276 43.258529 11.821730 43.258529 14.231429 C 43.258529 17.173799 41.482961 18.949367 37.703538 18.949367 L 32.909504 18.949367 Z M 34.532881 10.705659 L 34.532881 17.554278 L 37.627442 17.554278 C 40.417620 17.554278 41.482961 16.362111 41.482961 14.231429 C 41.482961 12.024652 40.493716 10.705659 37.652807 10.705659 Z M 47.342335 1.929280 L 52.212465 1.929280 C 57.716725 1.929280 60.253251 4.947745 60.253251 10.401276 L 60.253251 10.807120 C 60.253251 16.336746 57.437707 18.949367 52.161734 18.949367 L 47.342335 18.949367 Z M 48.965712 3.349734 L 48.965712 17.528913 L 52.034908 17.528913 C 56.245540 17.528913 58.477683 15.727979 58.477683 10.807120 L 58.477683 10.172988 C 58.477683 5.429685 56.524558 3.349734 52.237830 3.349734 Z M 63.652195 1.929280 L 73.722202 1.929280 L 73.722202 3.324369 L 65.275572 3.324369 L 65.275572 9.970066 L 71.718347 9.970066 L 71.718347 11.390521 L 65.275572 11.390521 L 65.275572 17.554278 L 73.646106 17.554278 L 73.646106 18.949367 L 63.652195 18.949367 Z M 77.349434 1.929280 L 78.871349 1.929280 L 78.871349 16.691859 L 78.922080 16.691859 L 87.952111 1.929280 L 89.676948 1.929280 L 89.676948 18.949367 L 88.155033 18.949367 L 88.155033 4.694093 L 88.104302 4.694093 L 79.327924 18.949367 L 77.349434 18.949367 Z M 94.115868 1.929280 L 95.764610 1.929280 L 95.764610 18.949367 L 94.115868 18.949367 Z M 100.203530 1.929280 L 101.725445 1.929280 L 101.725445 16.691859 L 101.776176 16.691859 L 110.806207 1.929280 L 112.531044 1.929280 L 112.531044 18.949367 L 111.009129 18.949367 L 111.009129 4.694093 L 110.958398 4.694093 L 102.182020 18.949367 L 100.203530 18.949367 Z M 123.742488 1.650262 C 125.797073 1.650262 127.496545 2.081471 128.840904 2.588777 L 128.840904 9.970066 L 123.438104 9.970066 L 123.438104 8.600342 L 127.217528 8.600342 L 127.217528 3.603387 C 126.304378 3.273639 125.086846 3.096082 123.767853 3.096082 C 119.126011 3.096082 117.705557 5.911625 117.705557 10.172988 L 117.705557 10.781754 C 117.705557 14.713369 119.405029 17.782565 123.717122 17.782565 C 125.949265 17.782565 127.192162 17.275260 128.206773 16.818685 L 128.206773 18.239140 C 127.242893 18.721080 125.999995 19.228385 123.818583 19.228385 C 119.405029 19.228385 115.929989 16.742590 115.929989 10.553467 L 115.929989 10.147623 C 115.929989 4.389710 118.872358 1.650262 123.742488 1.650262 Z M 139.443581 1.929280 L 141.092323 1.929280 L 141.092323 8.955456 L 144.643459 8.955456 C 147.966307 8.955456 150.046258 10.731024 150.046258 14.003142 C 150.046258 17.123068 148.321421 18.949367 144.389806 18.949367 L 139.443581 18.949367 Z M 141.092323 10.325180 L 141.092323 17.554278 L 144.212249 17.554278 C 147.281445 17.554278 148.270690 16.387476 148.270690 13.876316 C 148.270690 11.517347 147.129254 10.325180 144.288345 10.325180 Z M 153.140820 1.929280 L 154.764196 1.929280 L 154.764196 10.071527 L 163.870323 10.071527 L 163.870323 1.929280 L 165.493700 1.929280 L 165.493700 18.949367 L 163.870323 18.949367 L 163.870323 11.441251 L 154.764196 11.441251 L 154.764196 18.949367 L 153.140820 18.949367 Z M 169.856524 1.929280 L 171.505265 1.929280 L 171.505265 8.955456 L 175.056401 8.955456 C 178.379250 8.955456 180.459201 10.731024 180.459201 14.003142 C 180.459201 17.123068 178.734363 18.949367 174.802749 18.949367 L 169.856524 18.949367 Z M 171.505265 10.325180 L 171.505265 17.554278 L 174.625192 17.554278 C 177.694388 17.554278 178.683633 16.387476 178.683633 13.876316 C 178.683633 11.517347 177.542196 10.325180 174.701288 10.325180 Z M 184.263989 1.802454 L 186.242479 1.802454 L 193.015003 17.630374 L 193.015003 18.797175 L 182.209403 18.797175 L 182.209403 17.275260 L 191.036513 17.275260 Z" transform="scale(1.000000,1.000000) translate(249.000000,56.000000)" fill="#0c0d38" opacity="1.000000"></path>
        <path d="M 12.134334 1.215163 L 12.134334 9.408140 L 21.367287 9.408140 L 21.367287 10.803229 L 1.354100 10.803229 L 1.354100 9.408140 L 10.510957 9.408140 L 10.510957 1.215163 Z M 20.352677 14.785575 C 16.674714 15.166054 12.185064 18.260615 12.185064 21.126889 L 12.185064 22.420517 L 10.510957 22.420517 L 10.510957 21.126889 C 10.510957 18.260615 6.604708 15.318245 2.394075 14.734844 L 3.281859 13.390486 C 6.630073 14.100713 10.257305 16.408951 11.348011 18.869381 C 12.540178 16.408951 16.142044 14.176809 19.464893 13.441216 Z M 40.112211 12.223684 C 40.112211 14.709479 37.474225 15.977742 33.314323 15.977742 C 29.205151 15.977742 26.541799 14.709479 26.541799 12.223684 C 26.541799 9.940811 28.850038 8.697913 32.477269 8.520356 L 32.477269 5.324334 L 23.295046 5.324334 L 23.295046 3.954610 L 43.308234 3.954610 L 43.308234 5.324334 L 34.100646 5.324334 L 34.100646 8.520356 C 37.803973 8.672548 40.112211 9.915445 40.112211 12.223684 Z M 38.412739 12.223684 C 38.412739 10.549577 35.926944 9.864715 33.314323 9.864715 C 30.752432 9.864715 28.241271 10.549577 28.241271 12.223684 C 28.241271 13.923156 30.752432 14.608018 33.314323 14.608018 C 35.901579 14.608018 38.412739 13.923156 38.412739 12.223684 Z M 42.065336 17.296735 L 42.065336 18.691824 L 24.537944 18.691824 L 24.537944 17.296735 Z M 37.296668 20.771775 L 37.296668 22.217595 L 29.281247 22.217595 L 29.281247 20.771775 Z M 63.296056 7.302824 L 63.296056 23.409762 L 61.672679 23.409762 L 61.672679 7.302824 Z M 58.375196 12.325145 C 55.711844 13.314390 52.668013 15.774820 52.668013 19.554243 L 52.668013 22.141499 L 51.044637 22.141499 L 51.044637 19.528878 C 51.044637 15.901646 48.178363 12.857815 45.312089 11.513457 L 46.326699 10.245194 C 48.837860 11.614918 51.222194 14.100713 51.907056 16.510412 C 52.820205 14.100713 55.026982 12.122223 57.462047 11.006151 Z M 63.777996 1.950755 L 63.777996 3.320479 L 50.765619 3.320479 L 50.765619 8.672548 L 49.142243 8.672548 L 49.142243 1.950755 Z M 67.557419 13.035372 L 67.557419 11.691013 L 75.902588 11.691013 L 75.902588 13.035372 Z M 79.377628 4.081437 L 80.899544 4.081437 L 80.899544 18.844016 L 80.950274 18.844016 L 89.980305 4.081437 L 91.705143 4.081437 L 91.705143 21.101524 L 90.183227 21.101524 L 90.183227 6.846249 L 90.132497 6.846249 L 81.356118 21.101524 L 79.377628 21.101524 Z M 102.916586 3.802419 C 104.971172 3.802419 106.670644 4.233628 108.015003 4.740933 L 108.015003 12.122223 L 102.612203 12.122223 L 102.612203 10.752499 L 106.391626 10.752499 L 106.391626 5.755543 C 105.478477 5.425795 104.260945 5.248238 102.941951 5.248238 C 98.300109 5.248238 96.879655 8.063782 96.879655 12.325145 L 96.879655 12.933911 C 96.879655 16.865526 98.579127 19.934722 102.891221 19.934722 C 105.123363 19.934722 106.366261 19.427417 107.380871 18.970842 L 107.380871 20.391296 C 106.416992 20.873236 105.174094 21.380541 102.992682 21.380541 C 98.579127 21.380541 95.104087 18.894746 95.104087 12.705624 L 95.104087 12.299780 C 95.104087 6.541866 98.046457 3.802419 102.916586 3.802419 Z" transform="scale(1.000000,1.000000) translate(334.000000,91.000000)" fill="#650f16" opacity="1.000000"></path>
    </g>
</svg>