<?xml version="1.0" encoding="UTF-8" standalone="yes"?>
<!DOCTYPE svg PUBLIC "-//W3C//DTD SVG 1.1//EN" "http://www.w3.org/Graphics/SVG/1.1/DTD/svg11.dtd">

<svg width="500" height="310" viewBox="0 0 500 310" xmlns="http://www.w3.org/2000/svg" xmlns:xlink="http://www.w3.org/1999/xlink" version="1.1" baseProfile="full">
    <g transform="scale(1,-1) translate(0,-310)">
        <path d="M 1.000000 1.000000 L 501.000000 1.000000 L 501.000000 311.000000 L 1.000000 311.000000 Z" transform="scale(1.000000,1.000000) translate(-1.000000,-1.000000)" fill="#fffefe" opacity="1.000000"></path>
        <path d="M 296.512500 185.896500 L 310.437000 201.208900 L 317.237400 208.400300 L 323.952700 215.232400 L 330.599700 221.668000 L 337.195700 227.669900 L 343.757600 233.200900 L 350.302500 238.223900 L 356.847300 242.701800 L 363.409200 246.597300 L 370.005200 249.873400 L 373.321200 251.267500 L 376.652200 252.492800 L 380.000300 253.544600 L 383.367500 254.418400 L 386.755900 255.109400 L 390.167900 255.613000 L 393.605300 255.924500 L 397.070500 256.039400 L 400.565400 255.953000 L 404.092400 255.660600 L 407.653300 255.157600 L 411.250500 254.439300 L 414.886000 253.501100 L 418.562000 252.338400 L 422.280600 250.946500 L 426.043900 249.320700 L 429.854000 247.456500 L 433.713100 245.349100 L 437.623400 242.993900 L 441.586900 240.386400 L 445.605700 237.521700 L 449.682000 234.395400 L 453.818000 231.002700 L 458.015700 227.339000 L 462.277300 223.399600 L 466.605000 219.179900 L 458.015700 229.241000 L 449.682000 238.195700 L 441.586900 246.077600 L 437.623400 249.626700 L 433.713100 252.920100 L 429.854000 255.962000 L 426.043900 258.756600 L 422.280600 261.308100 L 418.562000 263.620600 L 414.886000 265.698300 L 411.250500 267.545500 L 407.653300 269.166200 L 404.092400 270.564700 L 400.565400 271.745200 L 397.070500 272.711800 L 393.605300 273.468800 L 390.167900 274.020200 L 386.755900 274.370300 L 383.367500 274.523200 L 380.000300 274.483200 L 376.652200 274.254400 L 373.321200 273.841000 L 370.005200 273.247200 L 366.701900 272.477100 L 363.409200 271.535000 L 360.125100 270.425000 L 356.847300 269.151300 L 350.302500 266.129600 L 343.757600 262.503200 L 337.195700 258.305600 L 330.599700 253.570300 L 323.952700 248.330700 L 317.237400 242.620300 L 310.437000 236.472400 L 303.534400 229.920600 L 296.512500 222.998300 L 282.042900 208.176000 L 266.891800 192.272900 L 252.700600 177.417600 L 288.970900 177.417600 Z M 87.999600 1.516700 L 91.347700 1.745500 L 94.678700 2.158900 L 97.994700 2.752700 L 101.298000 3.522800 L 104.590700 4.464900 L 107.874800 5.574900 L 111.152600 6.848600 L 117.697500 9.870300 L 124.242300 13.496700 L 130.804200 17.694300 L 137.400200 22.429600 L 144.047200 27.669200 L 150.762500 33.379600 L 157.562900 39.527500 L 164.465500 46.079300 L 171.487400 53.001600 L 185.957000 67.823900 L 201.108100 83.727000 L 215.299300 98.582300 L 179.029000 98.582300 L 171.487400 90.103400 L 157.562900 74.791000 L 150.762500 67.599600 L 144.047200 60.767500 L 137.400200 54.331900 L 130.804200 48.330000 L 124.242300 42.799000 L 117.697500 37.775900 L 111.152600 33.298100 L 104.590700 29.402500 L 97.994700 26.126500 L 94.678700 24.732400 L 91.347700 23.507100 L 87.999600 22.455300 L 84.632400 21.581500 L 81.244000 20.890500 L 77.832000 20.386900 L 74.394600 20.075400 L 70.929400 19.960500 L 67.434500 20.046900 L 63.907500 20.339300 L 60.346600 20.842300 L 56.749400 21.560600 L 53.113900 22.498800 L 49.437900 23.661500 L 45.719300 25.053400 L 41.956000 26.679200 L 38.145900 28.543400 L 34.286800 30.650800 L 30.376500 33.005900 L 26.413000 35.613500 L 22.394200 38.478200 L 18.317900 41.604500 L 14.181900 44.997200 L 9.984200 48.660900 L 5.722600 52.600300 L 1.395000 56.819900 L 9.984200 46.758900 L 18.317900 37.804200 L 26.413000 29.922300 L 30.376500 26.373200 L 34.286800 23.079800 L 38.145900 20.037900 L 41.956000 17.243300 L 45.719300 14.691800 L 49.437900 12.379300 L 53.113900 10.301600 L 56.749400 8.454400 L 60.346600 6.833700 L 63.907500 5.435100 L 67.434500 4.254700 L 70.929400 3.288100 L 74.394600 2.531100 L 77.832000 1.979700 L 81.244000 1.629600 L 84.632400 1.476700 Z" transform="scale(1.000000,1.000000) translate(16.000000,17.000000)" fill="#0c0d38" opacity="1.000000"></path>
        <path d="M 16.314994 1.396540 C 28.150735 1.396540 34.408713 6.702217 34.408713 16.497313 C 34.408713 25.748236 29.987316 28.945247 21.892757 30.509741 L 18.491682 31.121935 C 14.478414 31.938193 13.117984 32.890494 13.117984 35.271246 C 13.117984 37.924085 15.226650 39.216493 19.375962 39.216493 C 24.545596 39.216493 28.490843 38.128149 31.687853 37.039805 L 31.687853 46.222708 C 28.966993 47.515116 25.429875 48.603460 18.151575 48.603460 C 6.587920 48.603460 1.214221 42.957676 1.214221 34.318945 C 1.214221 24.727914 5.635619 21.530904 12.913919 20.170474 L 16.314994 19.490259 C 20.736392 18.605979 21.892757 17.789721 21.892757 15.136883 C 21.892757 12.416023 19.920134 10.851528 14.818521 10.851528 C 9.512844 10.851528 5.363533 11.939872 1.282243 13.436345 L 1.282243 4.117400 C 4.547275 2.348841 9.920973 1.396540 16.314994 1.396540 Z M 60.528969 1.396540 C 73.521075 1.396540 79.506967 7.178367 79.506967 18.537958 L 79.506967 47.787202 L 68.079355 47.787202 L 68.079355 19.014108 C 68.079355 13.096238 65.970689 10.715485 60.937098 10.715485 C 55.903507 10.715485 53.522755 13.096238 53.522755 18.946087 L 53.522755 47.787202 L 40.666691 47.787202 L 40.666691 18.469936 C 40.666691 7.110346 47.332798 1.396540 60.528969 1.396540 Z M 87.873612 2.144776 L 100.661654 2.144776 L 100.661654 21.054753 L 115.014190 21.054753 L 115.014190 2.144776 L 127.870254 2.144776 L 127.870254 47.855224 L 115.014190 47.855224 L 115.014190 30.237655 L 100.661654 30.237655 L 100.661654 47.855224 L 87.873612 47.855224 Z M 156.847412 10.715485 C 150.997564 10.715485 148.072639 14.320625 148.072639 24.183742 L 148.072639 26.496473 C 148.072639 35.135203 150.997564 39.284515 156.643348 39.284515 C 162.629240 39.284515 165.350100 35.407289 165.350100 25.884279 L 165.350100 23.571549 C 165.350100 14.864797 162.425175 10.715485 156.847412 10.715485 Z M 156.575326 1.396540 C 168.275024 1.396540 178.818357 8.130668 178.818357 24.387807 L 178.818357 25.884279 C 178.818357 41.869332 169.091282 48.603460 156.915434 48.603460 C 145.215736 48.603460 134.672404 41.869332 134.672404 25.612193 L 134.672404 24.115721 C 134.672404 8.130668 144.331457 1.396540 156.575326 1.396540 Z M 198.748656 1.396540 C 210.584397 1.396540 216.842375 6.702217 216.842375 16.497313 C 216.842375 25.748236 212.420978 28.945247 204.326419 30.509741 L 200.925344 31.121935 C 196.912076 31.938193 195.551646 32.890494 195.551646 35.271246 C 195.551646 37.924085 197.660312 39.216493 201.809624 39.216493 C 206.979258 39.216493 210.924505 38.128149 214.121515 37.039805 L 214.121515 46.222708 C 211.400655 47.515116 207.863537 48.603460 200.585237 48.603460 C 189.021582 48.603460 183.647883 42.957676 183.647883 34.318945 C 183.647883 24.727914 188.069281 21.530904 195.347581 20.170474 L 198.748656 19.490259 C 203.170054 18.605979 204.326419 17.789721 204.326419 15.136883 C 204.326419 12.416023 202.353796 10.851528 197.252183 10.851528 C 191.946506 10.851528 187.797195 11.939872 183.715905 13.436345 L 183.715905 4.117400 C 186.980937 2.348841 192.354635 1.396540 198.748656 1.396540 Z M 223.712547 2.144776 L 236.568610 2.144776 L 236.568610 47.855224 L 223.712547 47.855224 Z M 245.411405 2.144776 L 256.294845 2.144776 L 256.294845 30.645784 L 256.566931 30.645784 L 272.892091 2.144776 L 285.067939 2.144776 L 285.067939 47.855224 L 274.184499 47.855224 L 274.184499 22.279140 L 273.980435 22.279140 L 259.219769 47.855224 L 245.411405 47.855224 Z M 291.938111 17.177528 L 312.004453 17.177528 L 312.004453 26.292408 L 291.938111 26.292408 Z M 318.534517 2.144776 L 329.417957 2.144776 L 329.417957 30.645784 L 329.690043 30.645784 L 346.015203 2.144776 L 358.191051 2.144776 L 358.191051 47.855224 L 347.307611 47.855224 L 347.307611 22.279140 L 347.103547 22.279140 L 332.342882 47.855224 L 318.534517 47.855224 Z M 388.392597 1.464561 C 394.922661 1.464561 401.384704 2.961034 404.785779 4.389486 L 404.785779 26.836580 L 386.351952 26.836580 L 386.351952 18.469936 L 392.882016 18.469936 L 392.882016 11.327679 C 391.793672 10.919550 389.889070 10.579442 387.984468 10.579442 C 380.025953 10.579442 378.189372 15.545012 378.189372 24.047699 L 378.189372 26.088344 C 378.189372 33.774773 380.774189 38.808364 390.501264 38.808364 C 396.215070 38.808364 399.956252 37.583977 402.473048 36.699698 L 402.473048 46.086665 C 399.956252 47.379073 395.058704 48.603460 388.732705 48.603460 C 376.080706 48.603460 364.993201 43.093719 364.993201 25.748236 L 364.993201 24.251764 C 364.993201 7.450453 373.904018 1.464561 388.392597 1.464561 Z" transform="scale(1.000000,1.000000) translate(47.000000,130.000000)" fill="#970e0e" opacity="1.000000"></path>
        <path d="M 1.555802 1.929280 L 3.179179 1.929280 L 3.179179 10.071527 L 12.285306 10.071527 L 12.285306 1.929280 L 13.908682 1.929280 L 13.908682 18.949367 L 12.285306 18.949367 L 12.285306 11.441251 L 3.179179 11.441251 L 3.179179 18.949367 L 1.555802 18.949367 Z M 16.597400 1.929280 L 18.170045 1.929280 L 20.072440 7.129157 L 27.123981 7.129157 L 29.051740 1.929280 L 30.776578 1.929280 L 24.511360 18.949367 L 22.887983 18.949367 Z M 23.572845 16.742590 L 23.623576 16.742590 L 26.616676 8.549612 L 20.554380 8.549612 Z M 33.465295 1.929280 L 35.088671 1.929280 L 35.088671 9.386665 L 38.639807 9.386665 L 43.078727 1.929280 L 44.981121 1.929280 L 40.288549 9.665683 L 40.288549 9.767144 C 42.622153 10.401276 43.814320 11.821730 43.814320 14.231429 C 43.814320 17.173799 42.038752 18.949367 38.259328 18.949367 L 33.465295 18.949367 Z M 35.088671 10.705659 L 35.088671 17.554278 L 38.183233 17.554278 C 40.973411 17.554278 42.038752 16.362111 42.038752 14.231429 C 42.038752 12.024652 41.049507 10.705659 38.208598 10.705659 Z M 47.898126 1.929280 L 52.768255 1.929280 C 58.272516 1.929280 60.809041 4.947745 60.809041 10.401276 L 60.809041 10.807120 C 60.809041 16.336746 57.993498 18.949367 52.717525 18.949367 L 47.898126 18.949367 Z M 49.521502 3.349734 L 49.521502 17.528913 L 52.590698 17.528913 C 56.801331 17.528913 59.033473 15.727979 59.033473 10.807120 L 59.033473 10.172988 C 59.033473 5.429685 57.080349 3.349734 52.793620 3.349734 Z M 64.207986 1.929280 L 74.277993 1.929280 L 74.277993 3.324369 L 65.831362 3.324369 L 65.831362 9.970066 L 72.274137 9.970066 L 72.274137 11.390521 L 65.831362 11.390521 L 65.831362 17.554278 L 74.201897 17.554278 L 74.201897 18.949367 L 64.207986 18.949367 Z M 77.905224 1.929280 L 79.427140 1.929280 L 79.427140 16.691859 L 79.477870 16.691859 L 88.507901 1.929280 L 90.232739 1.929280 L 90.232739 18.949367 L 88.710823 18.949367 L 88.710823 4.694093 L 88.660093 4.694093 L 79.883714 18.949367 L 77.905224 18.949367 Z M 94.671659 1.929280 L 96.320400 1.929280 L 96.320400 18.949367 L 94.671659 18.949367 Z M 100.759320 1.929280 L 102.281236 1.929280 L 102.281236 16.691859 L 102.331966 16.691859 L 111.361997 1.929280 L 113.086835 1.929280 L 113.086835 18.949367 L 111.564919 18.949367 L 111.564919 4.694093 L 111.514189 4.694093 L 102.737810 18.949367 L 100.759320 18.949367 Z M 124.298278 1.650262 C 126.352864 1.650262 128.052336 2.081471 129.396695 2.588777 L 129.396695 9.970066 L 123.993895 9.970066 L 123.993895 8.600342 L 127.773318 8.600342 L 127.773318 3.603387 C 126.860169 3.273639 125.642637 3.096082 124.323643 3.096082 C 119.681801 3.096082 118.261347 5.911625 118.261347 10.172988 L 118.261347 10.781754 C 118.261347 14.713369 119.960819 17.782565 124.272913 17.782565 C 126.505055 17.782565 127.747953 17.275260 128.762563 16.818685 L 128.762563 18.239140 C 127.798683 18.721080 126.555786 19.228385 124.374374 19.228385 C 119.960819 19.228385 116.485779 16.742590 116.485779 10.553467 L 116.485779 10.147623 C 116.485779 4.389710 119.428149 1.650262 124.298278 1.650262 Z M 139.999372 1.929280 L 141.648113 1.929280 L 141.648113 8.955456 L 145.199249 8.955456 C 148.522098 8.955456 150.602049 10.731024 150.602049 14.003142 C 150.602049 17.123068 148.877211 18.949367 144.945597 18.949367 L 139.999372 18.949367 Z M 141.648113 10.325180 L 141.648113 17.554278 L 144.768040 17.554278 C 147.837236 17.554278 148.826481 16.387476 148.826481 13.876316 C 148.826481 11.517347 147.685044 10.325180 144.844136 10.325180 Z M 153.696610 1.929280 L 155.319987 1.929280 L 155.319987 10.071527 L 164.426114 10.071527 L 164.426114 1.929280 L 166.049490 1.929280 L 166.049490 18.949367 L 164.426114 18.949367 L 164.426114 11.441251 L 155.319987 11.441251 L 155.319987 18.949367 L 153.696610 18.949367 Z M 170.412314 1.929280 L 172.061056 1.929280 L 172.061056 8.955456 L 175.612192 8.955456 C 178.935040 8.955456 181.014991 10.731024 181.014991 14.003142 C 181.014991 17.123068 179.290154 18.949367 175.358539 18.949367 L 170.412314 18.949367 Z M 172.061056 10.325180 L 172.061056 17.554278 L 175.180982 17.554278 C 178.250178 17.554278 179.239423 16.387476 179.239423 13.876316 C 179.239423 11.517347 178.097987 10.325180 175.257078 10.325180 Z" transform="scale(1.000000,1.000000) translate(261.000000,56.000000)" fill="#0c0d38" opacity="1.000000"></path>
        <path d="M 12.134322 1.215162 L 12.134322 9.408140 L 21.367276 9.408140 L 21.367276 10.803229 L 1.354088 10.803229 L 1.354088 9.408140 L 10.510946 9.408140 L 10.510946 1.215162 Z M 20.352665 14.785574 C 16.674703 15.166053 12.185053 18.260614 12.185053 21.126888 L 12.185053 22.420517 L 10.510946 22.420517 L 10.510946 21.126888 C 10.510946 18.260614 6.604696 15.318245 2.394064 14.734844 L 3.281848 13.390485 C 6.630062 14.100712 10.257293 16.408951 11.347999 18.869381 C 12.540166 16.408951 16.142033 14.176808 19.464881 13.441216 Z M 40.112200 12.223683 C 40.112200 14.709479 37.474213 15.977741 33.314311 15.977741 C 29.205140 15.977741 26.541788 14.709479 26.541788 12.223683 C 26.541788 9.940810 28.850026 8.697913 32.477258 8.520356 L 32.477258 5.324334 L 23.295035 5.324334 L 23.295035 3.954610 L 43.308222 3.954610 L 43.308222 5.324334 L 34.100634 5.324334 L 34.100634 8.520356 C 37.803962 8.672548 40.112200 9.915445 40.112200 12.223683 Z M 38.412728 12.223683 C 38.412728 10.549577 35.926933 9.864715 33.314311 9.864715 C 30.752420 9.864715 28.241260 10.549577 28.241260 12.223683 C 28.241260 13.923156 30.752420 14.608018 33.314311 14.608018 C 35.901567 14.608018 38.412728 13.923156 38.412728 12.223683 Z M 42.065325 17.296735 L 42.065325 18.691824 L 24.537933 18.691824 L 24.537933 17.296735 Z M 37.296657 20.771775 L 37.296657 22.217594 L 29.281236 22.217594 L 29.281236 20.771775 Z M 63.296044 7.302824 L 63.296044 23.409762 L 61.672668 23.409762 L 61.672668 7.302824 Z M 58.375185 12.325144 C 55.711833 13.314389 52.668002 15.774819 52.668002 19.554243 L 52.668002 22.141499 L 51.044626 22.141499 L 51.044626 19.528877 C 51.044626 15.901646 48.178352 12.857815 45.312078 11.513456 L 46.326688 10.245193 C 48.837848 11.614917 51.222182 14.100712 51.907044 16.510412 C 52.820193 14.100712 55.026971 12.122222 57.462035 11.006151 Z M 63.777984 1.950755 L 63.777984 3.320478 L 50.765608 3.320478 L 50.765608 8.672548 L 49.142231 8.672548 L 49.142231 1.950755 Z M 67.557407 13.035372 L 67.557407 11.691013 L 75.902577 11.691013 L 75.902577 13.035372 Z M 79.377617 4.081436 L 80.899532 4.081436 L 80.899532 18.844015 L 80.950263 18.844015 L 89.980294 4.081436 L 91.705131 4.081436 L 91.705131 21.101523 L 90.183216 21.101523 L 90.183216 6.846249 L 90.132486 6.846249 L 81.356107 21.101523 L 79.377617 21.101523 Z M 102.916575 3.802418 C 104.971161 3.802418 106.670633 4.233628 108.014991 4.740933 L 108.014991 12.122222 L 102.612192 12.122222 L 102.612192 10.752499 L 106.391615 10.752499 L 106.391615 5.755543 C 105.478466 5.425795 104.260933 5.248238 102.941940 5.248238 C 98.300098 5.248238 96.879644 8.063781 96.879644 12.325144 L 96.879644 12.933911 C 96.879644 16.865525 98.579116 19.934721 102.891210 19.934721 C 105.123352 19.934721 106.366250 19.427416 107.380860 18.970842 L 107.380860 20.391296 C 106.416980 20.873236 105.174083 21.380541 102.992671 21.380541 C 98.579116 21.380541 95.104076 18.894746 95.104076 12.705623 L 95.104076 12.299779 C 95.104076 6.541866 98.046446 3.802418 102.916575 3.802418 Z" transform="scale(1.000000,1.000000) translate(334.000000,91.000000)" fill="#650f16" opacity="1.000000"></path>
    </g>
</svg>